# Blender v3.0.1 OBJ File: ''
# www.blender.org
o teapot
v 0.370303 0.304443 0.142938
v 0.375425 0.283457 0.145117
v 0.406266 0.283457 -0.011080
v 0.400714 0.304443 -0.011080
v 0.376244 0.311438 0.145466
v 0.407155 0.311438 -0.011080
v 0.388331 0.304443 0.150609
v 0.420257 0.304443 -0.011080
v 0.401647 0.283457 0.156274
v 0.434692 0.283457 -0.011080
v 0.286917 0.304443 0.267527
v 0.290859 0.283457 0.271468
v 0.291490 0.311438 0.272099
v 0.300792 0.304443 0.281402
v 0.311041 0.283457 0.291650
v 0.162329 0.304443 0.350912
v 0.164508 0.283457 0.356034
v 0.164857 0.311438 0.356853
v 0.169999 0.304443 0.368940
v 0.175665 0.283457 0.382256
v 0.008310 0.304443 0.381324
v 0.008310 0.283457 0.386876
v 0.008310 0.311438 0.387764
v 0.008310 0.304443 0.400866
v 0.008310 0.283457 0.415301
v -0.150262 0.304443 0.350912
v -0.158680 0.283457 0.356034
v -0.149585 0.311438 0.356853
v -0.153547 0.304443 0.368940
v -0.159044 0.283457 0.382256
v -0.274344 0.304443 0.267527
v -0.283832 0.283457 0.271468
v -0.276068 0.311438 0.272099
v -0.284322 0.304443 0.281402
v -0.294421 0.283457 0.291650
v -0.355200 0.304443 0.142938
v -0.362402 0.283457 0.145117
v -0.360073 0.311438 0.145466
v -0.371767 0.304443 0.150609
v -0.385027 0.283457 0.156274
v -0.384094 0.304443 -0.011080
v -0.389646 0.283457 -0.011080
v -0.390534 0.311438 -0.011080
v -0.403636 0.304443 -0.011080
v -0.418071 0.283457 -0.011080
v -0.353683 0.304443 -0.165099
v -0.358804 0.283457 -0.167278
v -0.359624 0.311438 -0.167627
v -0.371711 0.304443 -0.172769
v -0.385027 0.283457 -0.178435
v -0.270297 0.304443 -0.289687
v -0.274238 0.283457 -0.293629
v -0.274869 0.311438 -0.294260
v -0.284172 0.304443 -0.303562
v -0.294421 0.283457 -0.313811
v -0.145708 0.304443 -0.373073
v -0.147887 0.283457 -0.378195
v -0.148236 0.311438 -0.379014
v -0.153379 0.304443 -0.391101
v -0.159044 0.283457 -0.404417
v 0.008310 0.304443 -0.403484
v 0.008310 0.283457 -0.409036
v 0.008310 0.311438 -0.409925
v 0.008310 0.304443 -0.423027
v 0.008310 0.283457 -0.437462
v 0.162329 0.304443 -0.373073
v 0.164508 0.283457 -0.378195
v 0.164857 0.311438 -0.379014
v 0.169999 0.304443 -0.391101
v 0.175665 0.283457 -0.404417
v 0.286917 0.304443 -0.289687
v 0.290859 0.283457 -0.293629
v 0.291490 0.311438 -0.294260
v 0.300792 0.304443 -0.303562
v 0.311041 0.283457 -0.313811
v 0.370303 0.304443 -0.165099
v 0.375425 0.283457 -0.167278
v 0.376244 0.311438 -0.167627
v 0.388331 0.304443 -0.172769
v 0.401647 0.283457 -0.178435
v 0.449790 0.171865 0.176758
v 0.486879 0.171865 -0.011080
v 0.491787 0.062271 0.194626
v 0.532404 0.062271 -0.011080
v 0.521492 -0.043325 0.207265
v 0.564605 -0.043325 -0.011080
v 0.532759 -0.142925 0.212059
v 0.576819 -0.142925 -0.011080
v 0.348094 0.171865 0.328703
v 0.380417 0.062271 0.361026
v 0.403279 -0.043325 0.383889
v 0.411951 -0.142925 0.392561
v 0.196148 0.171865 0.430399
v 0.214017 0.062271 0.472396
v 0.226656 -0.043325 0.502101
v 0.231450 -0.142925 0.513369
v 0.008310 0.171865 0.467488
v 0.008310 0.062271 0.513013
v 0.008310 -0.043325 0.545214
v 0.008310 -0.142925 0.557428
v -0.179528 0.171865 0.430399
v -0.197397 0.062271 0.472396
v -0.210035 -0.043325 0.502101
v -0.214829 -0.142925 0.513369
v -0.331474 0.171865 0.328703
v -0.363796 0.062271 0.361026
v -0.386659 -0.043325 0.383889
v -0.395331 -0.142925 0.392561
v -0.433169 0.171865 0.176758
v -0.475166 0.062271 0.194626
v -0.504871 -0.043325 0.207265
v -0.516139 -0.142925 0.212059
v -0.470258 0.171865 -0.011080
v -0.515784 0.062271 -0.011080
v -0.547984 -0.043325 -0.011080
v -0.560198 -0.142925 -0.011080
v -0.433169 0.171865 -0.198919
v -0.475166 0.062271 -0.216787
v -0.504871 -0.043325 -0.229426
v -0.516139 -0.142925 -0.234220
v -0.331474 0.171865 -0.350864
v -0.363796 0.062271 -0.383187
v -0.386659 -0.043325 -0.406049
v -0.395331 -0.142925 -0.414721
v -0.179528 0.171865 -0.452560
v -0.197397 0.062271 -0.494557
v -0.210035 -0.043325 -0.524262
v -0.214829 -0.142925 -0.535529
v 0.008310 0.171865 -0.489649
v 0.008310 0.062271 -0.535174
v 0.008310 -0.043325 -0.567375
v 0.008310 -0.142925 -0.579589
v 0.196148 0.171865 -0.452560
v 0.214017 0.062271 -0.494557
v 0.226656 -0.043325 -0.524262
v 0.231450 -0.142925 -0.535529
v 0.348094 0.171865 -0.350864
v 0.380417 0.062271 -0.383187
v 0.403279 -0.043325 -0.406049
v 0.411951 -0.142925 -0.414721
v 0.449790 0.171865 -0.198919
v 0.491787 0.062271 -0.216787
v 0.521492 -0.043325 -0.229426
v 0.532759 -0.142925 -0.234220
v 0.512273 -0.227202 0.203343
v 0.554611 -0.227202 -0.011080
v 0.467203 -0.289493 0.184167
v 0.505755 -0.289493 -0.011080
v 0.422133 -0.331798 0.164991
v 0.456899 -0.331798 -0.011080
v 0.401647 -0.356115 0.156274
v 0.434692 -0.356115 -0.011080
v 0.396184 -0.227202 0.376793
v 0.361496 -0.289493 0.342106
v 0.326808 -0.331798 0.307418
v 0.311041 -0.356115 0.291650
v 0.222733 -0.227202 0.492882
v 0.203557 -0.289493 0.447813
v 0.184381 -0.331798 0.402743
v 0.175665 -0.356115 0.382256
v 0.008310 -0.227202 0.535221
v 0.008310 -0.289493 0.486365
v 0.008310 -0.331798 0.437508
v 0.008310 -0.356115 0.415301
v -0.206113 -0.227202 0.492882
v -0.186937 -0.289493 0.447813
v -0.167761 -0.331798 0.402743
v -0.159044 -0.356115 0.382256
v -0.379564 -0.227202 0.376793
v -0.344876 -0.289493 0.342106
v -0.310188 -0.331798 0.307418
v -0.294421 -0.356115 0.291650
v -0.495653 -0.227202 0.203343
v -0.450583 -0.289493 0.184167
v -0.405513 -0.331798 0.164991
v -0.385027 -0.356115 0.156274
v -0.537991 -0.227202 -0.011080
v -0.489135 -0.289493 -0.011080
v -0.440279 -0.331798 -0.011080
v -0.418071 -0.356115 -0.011080
v -0.495653 -0.227202 -0.225504
v -0.450583 -0.289493 -0.206327
v -0.405513 -0.331798 -0.187151
v -0.385027 -0.356115 -0.178435
v -0.379564 -0.227202 -0.398954
v -0.344876 -0.289493 -0.364266
v -0.310188 -0.331798 -0.329578
v -0.294421 -0.356115 -0.313811
v -0.206113 -0.227202 -0.515043
v -0.186937 -0.289493 -0.469973
v -0.167761 -0.331798 -0.424903
v -0.159044 -0.356115 -0.404417
v 0.008310 -0.227202 -0.557382
v 0.008310 -0.289493 -0.508525
v 0.008310 -0.331798 -0.459669
v 0.008310 -0.356115 -0.437462
v 0.222733 -0.227202 -0.515043
v 0.203557 -0.289493 -0.469973
v 0.184381 -0.331798 -0.424903
v 0.175665 -0.356115 -0.404417
v 0.396184 -0.227202 -0.398954
v 0.361496 -0.289493 -0.364266
v 0.326808 -0.331798 -0.329578
v 0.311041 -0.356115 -0.313811
v 0.512273 -0.227202 -0.225504
v 0.467203 -0.289493 -0.206327
v 0.422133 -0.331798 -0.187151
v 0.401647 -0.356115 -0.178435
v 0.392736 -0.371772 0.152483
v 0.425031 -0.371772 -0.011080
v 0.345105 -0.385429 0.132217
v 0.373399 -0.385429 -0.011080
v 0.227411 -0.395089 0.082141
v 0.245818 -0.395089 -0.011080
v 0.008310 -0.398754 -0.011080
v 0.304182 -0.371772 0.284792
v 0.267523 -0.385429 0.248133
v 0.176941 -0.395089 0.157550
v 0.171873 -0.371772 0.373345
v 0.151608 -0.385429 0.325714
v 0.101532 -0.395089 0.208021
v 0.008310 -0.371772 0.405641
v 0.008310 -0.385429 0.354009
v 0.008310 -0.395089 0.226427
v -0.155253 -0.371772 0.373345
v -0.134987 -0.385429 0.325714
v -0.084911 -0.395089 0.208021
v -0.287562 -0.371772 0.284792
v -0.250903 -0.385429 0.248133
v -0.160320 -0.395089 0.157550
v -0.376115 -0.371772 0.152483
v -0.328484 -0.385429 0.132217
v -0.210791 -0.395089 0.082141
v -0.408411 -0.371772 -0.011080
v -0.356779 -0.385429 -0.011080
v -0.229198 -0.395089 -0.011080
v -0.376115 -0.371772 -0.174643
v -0.328484 -0.385429 -0.154378
v -0.210791 -0.395089 -0.104302
v -0.287562 -0.371772 -0.306952
v -0.250903 -0.385429 -0.270294
v -0.160320 -0.395089 -0.179711
v -0.155253 -0.371772 -0.395506
v -0.134987 -0.385429 -0.347875
v -0.084911 -0.395089 -0.230181
v 0.008310 -0.371772 -0.427802
v 0.008310 -0.385429 -0.376169
v 0.008310 -0.395089 -0.248588
v 0.171873 -0.371772 -0.395506
v 0.151608 -0.385429 -0.347875
v 0.101532 -0.395089 -0.230181
v 0.304182 -0.371772 -0.306952
v 0.267523 -0.385429 -0.270294
v 0.176941 -0.395089 -0.179711
v 0.392736 -0.371772 -0.174643
v 0.345105 -0.385429 -0.154378
v 0.227411 -0.395089 -0.104302
v -0.583252 0.185699 0.036888
v -0.442055 0.186855 0.036888
v -0.446497 0.176861 -0.011080
v -0.579297 0.175862 -0.011080
v -0.686891 0.177611 0.036888
v -0.677453 0.168867 -0.011080
v -0.750724 0.155657 0.036888
v -0.738301 0.149879 -0.011080
v -0.772501 0.112904 0.036888
v -0.759176 0.112904 -0.011080
v -0.591955 0.207341 0.052877
v -0.432284 0.208840 0.052877
v -0.707655 0.196848 0.052877
v -0.778053 0.168367 0.052877
v -0.801814 0.112904 0.052877
v -0.600657 0.228983 0.036888
v -0.422513 0.230825 0.036888
v -0.728419 0.216085 0.036888
v -0.805381 0.181077 0.036888
v -0.831128 0.112904 0.036888
v -0.604613 0.238820 -0.011080
v -0.418071 0.240819 -0.011080
v -0.737857 0.224829 -0.011080
v -0.817804 0.186855 -0.011080
v -0.844453 0.112904 -0.011080
v -0.600657 0.228983 -0.059048
v -0.422513 0.230825 -0.059048
v -0.728419 0.216085 -0.059048
v -0.805381 0.181077 -0.059048
v -0.831128 0.112904 -0.059048
v -0.591955 0.207341 -0.075038
v -0.432284 0.208840 -0.075038
v -0.707655 0.196848 -0.075038
v -0.778053 0.168367 -0.075038
v -0.801814 0.112904 -0.075038
v -0.583252 0.185699 -0.059048
v -0.442055 0.186855 -0.059048
v -0.686891 0.177611 -0.059048
v -0.750724 0.155657 -0.059048
v -0.772501 0.112904 -0.059048
v -0.760183 0.049348 0.036888
v -0.748073 0.054943 -0.011080
v -0.721590 -0.023546 0.036888
v -0.712985 -0.015010 -0.011080
v -0.654267 -0.095503 0.036888
v -0.651248 -0.084963 -0.011080
v -0.555757 -0.156249 0.036888
v -0.560198 -0.142925 -0.011080
v -0.786824 0.037038 0.052877
v -0.740522 -0.042325 0.052877
v -0.660909 -0.118691 0.052877
v -0.545986 -0.185563 0.052877
v -0.813466 0.024729 0.036888
v -0.759454 -0.061104 0.036888
v -0.667550 -0.141878 0.036888
v -0.536214 -0.214877 0.036888
v -0.825576 0.019134 -0.011080
v -0.768059 -0.069640 -0.011080
v -0.670569 -0.152418 -0.011080
v -0.531773 -0.228201 -0.011080
v -0.813466 0.024729 -0.059048
v -0.759454 -0.061104 -0.059048
v -0.667550 -0.141878 -0.059048
v -0.536214 -0.214877 -0.059048
v -0.786824 0.037038 -0.075038
v -0.740522 -0.042325 -0.075038
v -0.660909 -0.118691 -0.075038
v -0.545986 -0.185563 -0.075038
v -0.760183 0.049348 -0.059048
v -0.721590 -0.023546 -0.059048
v -0.654267 -0.095503 -0.059048
v -0.555757 -0.156249 -0.059048
v 0.638305 0.010452 0.084206
v 0.491543 -0.030333 0.094449
v 0.491543 0.006309 -0.011080
v 0.627896 0.037621 -0.011080
v 0.700292 0.097081 0.061671
v 0.686967 0.112904 -0.011080
v 0.735629 0.198451 0.039136
v 0.719390 0.204176 -0.011080
v 0.802446 0.283457 0.028893
v 0.775797 0.283457 -0.011080
v 0.661207 -0.049321 0.115968
v 0.491543 -0.110946 0.129626
v 0.729605 0.062271 0.085921
v 0.771355 0.185855 0.055875
v 0.861073 0.283457 0.042217
v 0.684108 -0.109093 0.084206
v 0.491543 -0.191559 0.094449
v 0.758919 0.027461 0.061671
v 0.807081 0.173260 0.039136
v 0.919700 0.283457 0.028893
v 0.694518 -0.136262 -0.011080
v 0.491543 -0.228201 -0.011080
v 0.772244 0.011639 -0.011080
v 0.823321 0.167534 -0.011080
v 0.946349 0.283457 -0.011080
v 0.684108 -0.109093 -0.106367
v 0.491543 -0.191559 -0.116610
v 0.758919 0.027461 -0.083832
v 0.807081 0.173260 -0.061297
v 0.919700 0.283457 -0.051054
v 0.661207 -0.049321 -0.138129
v 0.491543 -0.110946 -0.151786
v 0.729605 0.062271 -0.108082
v 0.771355 0.185855 -0.078036
v 0.861073 0.283457 -0.064378
v 0.638305 0.010452 -0.106367
v 0.491543 -0.030333 -0.116610
v 0.700292 0.097081 -0.083832
v 0.735629 0.198451 -0.061297
v 0.802446 0.283457 -0.051054
v 0.824767 0.296034 0.026395
v 0.796227 0.295449 -0.011080
v 0.838116 0.300383 0.020898
v 0.811329 0.299446 -0.011080
v 0.838515 0.296268 0.015402
v 0.815770 0.295449 -0.011080
v 0.821988 0.283457 0.012904
v 0.804222 0.283457 -0.011080
v 0.887555 0.297322 0.038886
v 0.897049 0.302444 0.031558
v 0.888555 0.298072 0.024229
v 0.861073 0.283457 0.020898
v 0.950343 0.298611 0.026395
v 0.955982 0.304505 0.020898
v 0.938594 0.299875 0.015402
v 0.900158 0.283457 0.012904
v 0.978883 0.299196 -0.011080
v 0.982769 0.305442 -0.011080
v 0.961339 0.300695 -0.011080
v 0.917924 0.283457 -0.011080
v 0.950343 0.298611 -0.048555
v 0.955982 0.304505 -0.043059
v 0.938594 0.299875 -0.037563
v 0.900158 0.283457 -0.035064
v 0.887555 0.297322 -0.061047
v 0.897049 0.302444 -0.053718
v 0.888555 0.298072 -0.046390
v 0.861073 0.283457 -0.043059
v 0.824767 0.296034 -0.048555
v 0.838116 0.300383 -0.043059
v 0.838515 0.296268 -0.037563
v 0.821988 0.283457 -0.035064
v 0.008310 0.496647 -0.011080
v 0.105134 0.482657 -0.011080
v 0.097664 0.482657 0.027024
v 0.093563 0.448680 0.025270
v 0.100693 0.448680 -0.011080
v 0.059947 0.406708 0.010919
v 0.064273 0.406708 -0.011080
v 0.060755 0.368733 0.011234
v 0.065161 0.368733 -0.011080
v 0.077145 0.482657 0.057755
v 0.073982 0.448680 0.054591
v 0.048074 0.406708 0.028683
v 0.048674 0.368733 0.029284
v 0.046415 0.482657 0.078274
v 0.044660 0.448680 0.074173
v 0.030309 0.406708 0.040556
v 0.030624 0.368733 0.041365
v 0.008310 0.482657 0.085744
v 0.008310 0.448680 0.081302
v 0.008310 0.406708 0.044882
v 0.008310 0.368733 0.045771
v -0.029794 0.482657 0.078274
v -0.028040 0.448680 0.074173
v -0.013689 0.406708 0.040556
v -0.014004 0.368733 0.041365
v -0.060525 0.482657 0.057755
v -0.057361 0.448680 0.054591
v -0.031453 0.406708 0.028683
v -0.032054 0.368733 0.029284
v -0.081044 0.482657 0.027024
v -0.076943 0.448680 0.025270
v -0.043327 0.406708 0.010919
v -0.044135 0.368733 0.011234
v -0.088514 0.482657 -0.011080
v -0.084072 0.448680 -0.011080
v -0.047652 0.406708 -0.011080
v -0.048541 0.368733 -0.011080
v -0.081044 0.482657 -0.049185
v -0.076943 0.448680 -0.047430
v -0.043327 0.406708 -0.033079
v -0.044135 0.368733 -0.033394
v -0.060525 0.482657 -0.079915
v -0.057361 0.448680 -0.076752
v -0.031453 0.406708 -0.050844
v -0.032054 0.368733 -0.051444
v -0.029794 0.482657 -0.100434
v -0.028040 0.448680 -0.096333
v -0.013689 0.406708 -0.062717
v -0.014004 0.368733 -0.063525
v 0.008310 0.482657 -0.107904
v 0.008310 0.448680 -0.103463
v 0.008310 0.406708 -0.067043
v 0.008310 0.368733 -0.067931
v 0.046415 0.482657 -0.100434
v 0.044660 0.448680 -0.096333
v 0.030309 0.406708 -0.062717
v 0.030624 0.368733 -0.063525
v 0.077145 0.482657 -0.079915
v 0.073982 0.448680 -0.076752
v 0.048074 0.406708 -0.050844
v 0.048674 0.368733 -0.051444
v 0.097664 0.482657 -0.049185
v 0.093563 0.448680 -0.047430
v 0.059947 0.406708 -0.033079
v 0.060755 0.368733 -0.033394
v 0.127950 0.343417 0.039823
v 0.138001 0.343417 -0.011080
v 0.224646 0.326095 0.080965
v 0.242820 0.326095 -0.011080
v 0.311507 0.308773 0.117922
v 0.336979 0.308773 -0.011080
v 0.349202 0.283457 0.133960
v 0.377841 0.283457 -0.011080
v 0.100391 0.343417 0.081000
v 0.174812 0.326095 0.155422
v 0.241665 0.308773 0.222275
v 0.270677 0.283457 0.251286
v 0.059214 0.343417 0.108560
v 0.100355 0.326095 0.205255
v 0.137313 0.308773 0.292117
v 0.153351 0.283457 0.329812
v 0.008310 0.343417 0.118611
v 0.008310 0.326095 0.223429
v 0.008310 0.308773 0.317589
v 0.008310 0.283457 0.358450
v -0.042593 0.343417 0.108560
v -0.083735 0.326095 0.205255
v -0.120692 0.308773 0.292117
v -0.136730 0.283457 0.329812
v -0.083770 0.343417 0.081000
v -0.158192 0.326095 0.155422
v -0.225045 0.308773 0.222275
v -0.254056 0.283457 0.251286
v -0.111330 0.343417 0.039823
v -0.208025 0.326095 0.080965
v -0.294887 0.308773 0.117922
v -0.332582 0.283457 0.133960
v -0.121381 0.343417 -0.011080
v -0.226200 0.326095 -0.011080
v -0.320359 0.308773 -0.011080
v -0.361220 0.283457 -0.011080
v -0.111330 0.343417 -0.061984
v -0.208025 0.326095 -0.103125
v -0.294887 0.308773 -0.140083
v -0.332582 0.283457 -0.156121
v -0.083770 0.343417 -0.103161
v -0.158192 0.326095 -0.177582
v -0.225045 0.308773 -0.244435
v -0.254056 0.283457 -0.273447
v -0.042593 0.343417 -0.130720
v -0.083735 0.326095 -0.227416
v -0.120692 0.308773 -0.314277
v -0.136730 0.283457 -0.351972
v 0.008310 0.343417 -0.140771
v 0.008310 0.326095 -0.245590
v 0.008310 0.308773 -0.339749
v 0.008310 0.283457 -0.380611
v 0.059214 0.343417 -0.130720
v 0.100355 0.326095 -0.227416
v 0.137313 0.308773 -0.314277
v 0.153351 0.283457 -0.351972
v 0.100391 0.343417 -0.103161
v 0.174812 0.326095 -0.177582
v 0.241665 0.308773 -0.244435
v 0.270677 0.283457 -0.273447
v 0.127950 0.343417 -0.061984
v 0.224646 0.326095 -0.103125
v 0.311507 0.308773 -0.140083
v 0.349202 0.283457 -0.156121
vn 0.8934 -0.2560 0.3691
vn 0.8930 0.2564 0.3699
vn 0.9667 0.2557 0.0000
vn 0.9668 -0.2555 0.0000
vn 0.0839 -0.9958 0.0355
vn 0.0920 -0.9957 0.0000
vn -0.6297 -0.7318 -0.2604
vn -0.6820 -0.7313 0.0000
vn -0.8037 -0.4934 -0.3326
vn -0.8703 -0.4925 0.0000
vn 0.6835 -0.2561 0.6835
vn 0.6834 0.2567 0.6834
vn 0.0649 -0.9958 0.0649
vn -0.4814 -0.7324 -0.4814
vn -0.6148 -0.4940 -0.6148
vn 0.3691 -0.2560 0.8934
vn 0.3699 0.2564 0.8930
vn 0.0355 -0.9958 0.0839
vn -0.2604 -0.7319 -0.6297
vn -0.3326 -0.4934 -0.8037
vn 0.0019 -0.2547 0.9670
vn 0.0028 0.2579 0.9662
vn 0.0002 -0.9957 0.0923
vn 0.0000 -0.7313 -0.6820
vn 0.0000 -0.4925 -0.8703
vn -0.3771 -0.1491 0.9141
vn -0.3790 0.3593 0.8527
vn -0.0275 -0.9921 0.1226
vn 0.2610 -0.7267 -0.6353
vn 0.3325 -0.4925 -0.8043
vn -0.7126 -0.0737 0.6976
vn -0.6635 0.4107 0.6253
vn -0.0997 -0.9875 0.1220
vn 0.4873 -0.7237 -0.4885
vn 0.6152 -0.4926 -0.6155
vn -0.9173 -0.1671 0.3615
vn -0.8800 0.3329 0.3387
vn -0.1136 -0.9923 0.0481
vn 0.6341 -0.7275 -0.2619
vn 0.8041 -0.4926 -0.3327
vn -0.9674 -0.2529 -0.0081
vn -0.9667 0.2557 -0.0104
vn -0.0934 -0.9956 -0.0013
vn 0.6821 -0.7312 0.0003
vn 0.8703 -0.4925 0.0000
vn -0.8934 -0.2560 -0.3691
vn -0.8930 0.2563 -0.3699
vn -0.0839 -0.9958 -0.0355
vn 0.6297 -0.7319 0.2604
vn 0.8037 -0.4934 0.3326
vn -0.6835 -0.2561 -0.6835
vn -0.6834 0.2567 -0.6834
vn -0.0649 -0.9958 -0.0649
vn 0.4814 -0.7325 0.4814
vn 0.6148 -0.4940 0.6148
vn -0.3691 -0.2560 -0.8934
vn -0.3699 0.2564 -0.8930
vn -0.0355 -0.9958 -0.0839
vn 0.2604 -0.7319 0.6297
vn 0.3326 -0.4934 0.8037
vn 0.0000 -0.2555 -0.9668
vn 0.0000 0.2557 -0.9667
vn 0.0000 -0.9957 -0.0920
vn 0.0000 -0.7313 0.6820
vn 0.0000 -0.4925 0.8703
vn 0.3691 -0.2560 -0.8934
vn 0.3699 0.2564 -0.8930
vn 0.0355 -0.9958 -0.0839
vn -0.2604 -0.7319 0.6297
vn -0.3326 -0.4934 0.8037
vn 0.6835 -0.2561 -0.6835
vn 0.6834 0.2567 -0.6834
vn 0.0649 -0.9958 -0.0649
vn -0.4814 -0.7324 0.4814
vn -0.6148 -0.4940 0.6148
vn 0.8934 -0.2560 -0.3691
vn 0.8930 0.2564 -0.3699
vn 0.0839 -0.9958 -0.0355
vn -0.6297 -0.7319 0.2604
vn -0.8037 -0.4934 0.3326
vn -0.8454 -0.4035 -0.3498
vn -0.9153 -0.4027 0.0000
vn -0.8700 -0.3368 -0.3600
vn -0.9418 -0.3361 0.0000
vn -0.9042 -0.2058 -0.3743
vn -0.9787 -0.2053 0.0000
vn -0.9219 0.0663 -0.3817
vn -0.9978 0.0662 0.0000
vn -0.6468 -0.4041 -0.6468
vn -0.6656 -0.3373 -0.6656
vn -0.6919 -0.2061 -0.6919
vn -0.7055 0.0665 -0.7055
vn -0.3498 -0.4035 -0.8454
vn -0.3600 -0.3368 -0.8700
vn -0.3743 -0.2058 -0.9042
vn -0.3817 0.0663 -0.9219
vn 0.0000 -0.4027 -0.9153
vn 0.0000 -0.3361 -0.9418
vn 0.0000 -0.2053 -0.9787
vn 0.0000 0.0662 -0.9978
vn 0.3498 -0.4035 -0.8454
vn 0.3600 -0.3368 -0.8700
vn 0.3743 -0.2058 -0.9042
vn 0.3817 0.0663 -0.9219
vn 0.6468 -0.4041 -0.6468
vn 0.6656 -0.3374 -0.6656
vn 0.6919 -0.2061 -0.6919
vn 0.7055 0.0665 -0.7055
vn 0.8454 -0.4035 -0.3498
vn 0.8700 -0.3368 -0.3600
vn 0.9042 -0.2058 -0.3743
vn 0.9219 0.0663 -0.3817
vn 0.9153 -0.4027 0.0000
vn 0.9418 -0.3361 0.0000
vn 0.9787 -0.2053 0.0000
vn 0.9978 0.0662 0.0000
vn 0.8454 -0.4035 0.3498
vn 0.8700 -0.3368 0.3600
vn 0.9042 -0.2058 0.3743
vn 0.9219 0.0663 0.3817
vn 0.6468 -0.4041 0.6468
vn 0.6656 -0.3373 0.6656
vn 0.6919 -0.2061 0.6919
vn 0.7055 0.0665 0.7055
vn 0.3498 -0.4035 0.8454
vn 0.3600 -0.3368 0.8700
vn 0.3743 -0.2058 0.9042
vn 0.3817 0.0663 0.9219
vn 0.0000 -0.4027 0.9153
vn 0.0000 -0.3361 0.9418
vn 0.0000 -0.2053 0.9787
vn 0.0000 0.0662 0.9978
vn -0.3498 -0.4035 0.8454
vn -0.3600 -0.3368 0.8700
vn -0.3743 -0.2058 0.9042
vn -0.3817 0.0663 0.9219
vn -0.6468 -0.4041 0.6468
vn -0.6656 -0.3373 0.6656
vn -0.6919 -0.2061 0.6919
vn -0.7055 0.0665 0.7055
vn -0.8454 -0.4035 0.3498
vn -0.8700 -0.3368 0.3600
vn -0.9042 -0.2058 0.3743
vn -0.9219 0.0663 0.3817
vn -0.8314 0.4362 -0.3442
vn -0.9002 0.4355 0.0000
vn -0.6735 0.6847 -0.2786
vn -0.7296 0.6839 0.0000
vn -0.6404 0.7209 -0.2649
vn -0.6939 0.7200 0.0000
vn -0.7330 0.6090 -0.3032
vn -0.7939 0.6080 0.0000
vn -0.6361 0.4368 -0.6361
vn -0.5149 0.6853 -0.5149
vn -0.4896 0.7214 -0.4896
vn -0.5605 0.6095 -0.5605
vn -0.3442 0.4362 -0.8314
vn -0.2786 0.6847 -0.6735
vn -0.2649 0.7209 -0.6404
vn -0.3032 0.6090 -0.7329
vn 0.0000 0.4355 -0.9002
vn 0.0000 0.6839 -0.7296
vn 0.0000 0.7200 -0.6939
vn 0.0000 0.6080 -0.7939
vn 0.3442 0.4362 -0.8314
vn 0.2786 0.6847 -0.6735
vn 0.2648 0.7209 -0.6404
vn 0.3031 0.6090 -0.7329
vn 0.6361 0.4368 -0.6361
vn 0.5149 0.6853 -0.5149
vn 0.4896 0.7214 -0.4896
vn 0.5605 0.6095 -0.5605
vn 0.8314 0.4362 -0.3442
vn 0.6735 0.6847 -0.2786
vn 0.6404 0.7209 -0.2649
vn 0.7329 0.6090 -0.3031
vn 0.9002 0.4355 0.0000
vn 0.7296 0.6839 0.0000
vn 0.6939 0.7200 0.0000
vn 0.7939 0.6080 0.0000
vn 0.8314 0.4362 0.3442
vn 0.6735 0.6847 0.2786
vn 0.6404 0.7209 0.2649
vn 0.7329 0.6090 0.3031
vn 0.6361 0.4368 0.6361
vn 0.5149 0.6853 0.5149
vn 0.4896 0.7214 0.4896
vn 0.5605 0.6095 0.5605
vn 0.3442 0.4362 0.8314
vn 0.2786 0.6847 0.6735
vn 0.2649 0.7209 0.6404
vn 0.3031 0.6090 0.7330
vn 0.0000 0.4355 0.9002
vn 0.0000 0.6839 0.7296
vn 0.0000 0.7200 0.6939
vn 0.0000 0.6080 0.7939
vn -0.3442 0.4362 0.8314
vn -0.2786 0.6847 0.6735
vn -0.2649 0.7209 0.6404
vn -0.3032 0.6090 0.7329
vn -0.6361 0.4368 0.6361
vn -0.5149 0.6853 0.5149
vn -0.4896 0.7214 0.4896
vn -0.5605 0.6095 0.5605
vn -0.8314 0.4362 0.3442
vn -0.6735 0.6847 0.2786
vn -0.6404 0.7209 0.2649
vn -0.7329 0.6090 0.3032
vn -0.5762 0.7818 -0.2382
vn -0.6238 0.7815 0.0000
vn -0.1636 0.9842 -0.0675
vn -0.1773 0.9841 0.0000
vn -0.0454 0.9988 -0.0187
vn -0.0492 0.9988 0.0000
vn 0.0000 1.0000 0.0000
vn -0.4404 0.7823 -0.4404
vn -0.1249 0.9843 -0.1249
vn -0.0346 0.9988 -0.0346
vn -0.2382 0.7818 -0.5762
vn -0.0675 0.9842 -0.1636
vn -0.0187 0.9988 -0.0454
vn 0.0000 0.7815 -0.6239
vn 0.0000 0.9841 -0.1773
vn 0.0000 0.9988 -0.0492
vn 0.2382 0.7818 -0.5762
vn 0.0675 0.9842 -0.1636
vn 0.0187 0.9988 -0.0454
vn 0.4404 0.7823 -0.4404
vn 0.1249 0.9843 -0.1249
vn 0.0346 0.9988 -0.0346
vn 0.5762 0.7818 -0.2382
vn 0.1636 0.9842 -0.0675
vn 0.0454 0.9988 -0.0187
vn 0.6239 0.7815 0.0000
vn 0.1773 0.9841 0.0000
vn 0.0492 0.9988 0.0000
vn 0.5762 0.7818 0.2382
vn 0.1636 0.9842 0.0675
vn 0.0454 0.9988 0.0187
vn 0.4404 0.7823 0.4404
vn 0.1249 0.9843 0.1249
vn 0.0346 0.9988 0.0346
vn 0.2382 0.7818 0.5762
vn 0.0675 0.9842 0.1636
vn 0.0187 0.9988 0.0454
vn 0.0000 0.7815 0.6239
vn 0.0000 0.9841 0.1773
vn 0.0000 0.9988 0.0492
vn -0.2382 0.7818 0.5762
vn -0.0675 0.9842 0.1636
vn -0.0187 0.9988 0.0454
vn -0.4404 0.7823 0.4404
vn -0.1249 0.9843 0.1249
vn -0.0346 0.9988 0.0346
vn -0.5762 0.7818 0.2382
vn -0.1636 0.9842 0.0675
vn -0.0454 0.9988 0.0187
vn -0.0361 0.8372 -0.5456
vn -0.0070 0.8125 -0.5829
vn -0.0078 1.0000 0.0002
vn -0.0391 0.9992 0.0010
vn -0.1618 0.8104 -0.5630
vn -0.1795 0.9837 0.0044
vn -0.4823 0.5951 -0.6428
vn -0.6123 0.7906 0.0104
vn -0.7387 0.1146 -0.6642
vn -0.9861 0.1657 0.0067
vn -0.0027 -0.0171 -0.9998
vn 0.0019 -0.1621 -0.9868
vn -0.0105 -0.0734 -0.9972
vn 0.0660 -0.1301 -0.9893
vn 0.0944 -0.0166 -0.9954
vn 0.0486 -0.8406 -0.5394
vn 0.0092 -0.8715 -0.4903
vn 0.2233 -0.8029 -0.5527
vn 0.5963 -0.5600 -0.5751
vn 0.8033 -0.0682 -0.5916
vn 0.0588 -0.9983 -0.0007
vn 0.0106 -0.9999 -0.0001
vn 0.2807 -0.9598 -0.0033
vn 0.7497 -0.6617 -0.0042
vn 0.9973 -0.0727 -0.0020
vn 0.0465 -0.8412 0.5387
vn 0.0088 -0.8715 0.4903
vn 0.2179 -0.8068 0.5492
vn 0.5973 -0.5600 0.5741
vn 0.8040 -0.0629 0.5913
vn -0.0020 -0.0145 0.9999
vn 0.0018 -0.1617 0.9868
vn -0.0092 -0.0601 0.9981
vn 0.0593 -0.1139 0.9917
vn 0.0869 -0.0123 0.9961
vn -0.0338 0.8375 0.5453
vn -0.0064 0.8124 0.5831
vn -0.1571 0.8119 0.5622
vn -0.4844 0.5893 0.6465
vn -0.7389 0.1013 0.6662
vn -0.7256 -0.2593 -0.6373
vn -0.9465 -0.3226 0.0034
vn -0.6459 -0.4620 -0.6077
vn -0.8258 -0.5639 0.0074
vn -0.5316 -0.6366 -0.5586
vn -0.6500 -0.7599 0.0069
vn -0.4249 -0.6817 -0.5955
vn -0.5324 -0.8464 0.0052
vn 0.0495 0.0197 -0.9986
vn 0.0378 0.0356 -0.9986
vn 0.0379 0.0365 -0.9986
vn 0.1688 0.2979 -0.9395
vn 0.7423 0.2991 -0.5995
vn 0.6196 0.5294 -0.5795
vn 0.4837 0.6858 -0.5438
vn 0.4453 0.7943 -0.4132
vn 0.9265 0.3762 -0.0020
vn 0.7539 0.6569 -0.0043
vn 0.5662 0.8242 -0.0034
vn 0.4818 0.8762 -0.0018
vn 0.7447 0.2944 0.5990
vn 0.6219 0.5281 0.5781
vn 0.4812 0.6883 0.5428
vn 0.4380 0.7970 0.4157
vn 0.0443 0.0170 0.9989
vn 0.0262 0.0281 0.9992
vn 0.0253 0.0283 0.9993
vn 0.1575 0.2894 0.9442
vn -0.7282 -0.2524 0.6371
vn -0.6471 -0.4597 0.6082
vn -0.5230 -0.6406 0.5622
vn -0.4100 -0.6829 0.6046
vn 0.3167 -0.6377 -0.7021
vn 0.1529 -0.6872 -0.7102
vn 0.2308 -0.9730 0.0065
vn 0.5489 -0.8358 0.0015
vn 0.6011 -0.4714 -0.6453
vn 0.8757 -0.4828 -0.0099
vn 0.6359 -0.4461 -0.6298
vn 0.8775 -0.4791 -0.0191
vn 0.4357 -0.6010 -0.6700
vn 0.6962 -0.7174 -0.0245
vn -0.2233 -0.0065 -0.9747
vn -0.1111 0.0851 -0.9901
vn -0.1901 -0.1549 -0.9695
vn -0.0052 -0.1895 -0.9818
vn 0.0117 -0.2467 -0.9690
vn -0.5725 0.5676 -0.5916
vn -0.3439 0.7228 -0.5994
vn -0.7874 0.2564 -0.5605
vn -0.6471 0.3063 -0.6981
vn -0.4275 0.4993 -0.7536
vn -0.6715 0.7410 0.0009
vn -0.4109 0.9116 -0.0013
vn -0.9220 0.3870 0.0072
vn -0.8469 0.5315 0.0138
vn -0.5359 0.8442 0.0105
vn -0.5787 0.5611 0.5918
vn -0.3412 0.7228 0.6009
vn -0.7848 0.2510 0.5665
vn -0.6427 0.3023 0.7040
vn -0.4186 0.5000 0.7581
vn -0.2328 -0.0125 0.9724
vn -0.1158 0.0791 0.9901
vn -0.2066 -0.1536 0.9663
vn -0.0245 -0.1614 0.9866
vn -0.0034 -0.2111 0.9774
vn 0.3195 -0.6330 0.7050
vn 0.1349 -0.6875 0.7135
vn 0.6039 -0.4614 0.6499
vn 0.6318 -0.4371 0.6401
vn 0.4243 -0.6127 0.6667
vn 0.2598 -0.7919 -0.5525
vn 0.4258 -0.9048 -0.0108
vn -0.0096 -0.9997 0.0217
vn -0.0221 -0.9997 -0.0016
vn -0.4101 -0.3328 0.8491
vn -0.9996 -0.0258 -0.0115
vn -0.5415 0.5486 0.6370
vn -0.7096 0.7046 -0.0096
vn -0.0463 -0.4552 -0.8892
vn 0.0107 -0.9888 -0.1489
vn 0.0443 -0.6829 0.7291
vn -0.1228 -0.0092 0.9924
vn -0.4818 0.1804 -0.8575
vn -0.4553 -0.7367 -0.4999
vn 0.2205 -0.9072 0.3583
vn 0.2359 -0.6572 0.7158
vn -0.7281 0.6853 0.0156
vn -0.8887 -0.4581 0.0166
vn 0.2601 -0.9656 -0.0008
vn 0.3716 -0.9284 0.0044
vn -0.4801 0.1784 0.8589
vn -0.4881 -0.7168 0.4979
vn 0.2220 -0.9054 -0.3619
vn 0.2354 -0.6632 -0.7104
vn -0.0587 -0.4377 0.8972
vn -0.0013 -0.9864 0.1640
vn 0.0442 -0.6817 -0.7303
vn -0.1388 0.0342 -0.9897
vn 0.2589 -0.7972 0.5454
vn -0.0123 -0.9997 -0.0193
vn -0.3986 -0.3548 -0.8457
vn -0.5376 0.5814 -0.6107
vn 0.0000 -1.0000 0.0000
vn -0.8245 -0.5658 0.0000
vn -0.7626 -0.5650 -0.3148
vn -0.8480 0.3980 -0.3500
vn -0.9177 0.3973 -0.0000
vn -0.8641 0.3552 -0.3564
vn -0.9352 0.3539 -0.0001
vn -0.7210 -0.6256 -0.2979
vn -0.7807 -0.6249 -0.0001
vn -0.5833 -0.5651 -0.5833
vn -0.6485 0.3987 -0.6484
vn -0.6608 0.3559 -0.6607
vn -0.5518 -0.6253 -0.5518
vn -0.3148 -0.5650 -0.7626
vn -0.3500 0.3980 -0.8480
vn -0.3565 0.3552 -0.8641
vn -0.2980 -0.6255 -0.7211
vn 0.0000 -0.5658 -0.8245
vn 0.0000 0.3973 -0.9177
vn 0.0001 0.3539 -0.9353
vn 0.0001 -0.6249 -0.7807
vn 0.3148 -0.5650 -0.7626
vn 0.3500 0.3980 -0.8480
vn 0.3564 0.3552 -0.8641
vn 0.2979 -0.6256 -0.7210
vn 0.5833 -0.5651 -0.5834
vn 0.6484 0.3987 -0.6485
vn 0.6607 0.3559 -0.6609
vn 0.5518 -0.6253 -0.5518
vn 0.7626 -0.5651 -0.3148
vn 0.8480 0.3980 -0.3500
vn 0.8641 0.3552 -0.3565
vn 0.7211 -0.6255 -0.2980
vn 0.8245 -0.5658 0.0000
vn 0.9177 0.3973 0.0000
vn 0.9353 0.3539 0.0001
vn 0.7807 -0.6249 0.0001
vn 0.7626 -0.5650 0.3148
vn 0.8480 0.3980 0.3500
vn 0.8641 0.3552 0.3564
vn 0.7210 -0.6256 0.2979
vn 0.5833 -0.5651 0.5833
vn 0.6485 0.3987 0.6484
vn 0.6608 0.3559 0.6607
vn 0.5518 -0.6253 0.5518
vn 0.3148 -0.5651 0.7626
vn 0.3500 0.3980 0.8480
vn 0.3565 0.3552 0.8641
vn 0.2980 -0.6255 0.7211
vn 0.0000 -0.5658 0.8245
vn -0.0000 0.3973 0.9177
vn -0.0001 0.3539 0.9352
vn -0.0001 -0.6249 0.7807
vn -0.3148 -0.5650 0.7626
vn -0.3500 0.3980 0.8480
vn -0.3564 0.3552 0.8641
vn -0.2979 -0.6256 0.7210
vn -0.5833 -0.5652 0.5833
vn -0.6484 0.3987 0.6485
vn -0.6607 0.3559 0.6608
vn -0.5518 -0.6253 0.5519
vn -0.7626 -0.5651 0.3148
vn -0.8480 0.3980 0.3500
vn -0.8641 0.3552 0.3565
vn -0.7211 -0.6255 0.2980
vn -0.2180 -0.9718 -0.0902
vn -0.2366 -0.9716 0.0000
vn -0.1596 -0.9850 -0.0660
vn -0.1731 -0.9849 0.0000
vn -0.3505 -0.9253 -0.1447
vn -0.3797 -0.9251 0.0000
vn -0.4856 -0.8506 -0.2015
vn -0.5267 -0.8501 0.0000
vn -0.1666 -0.9718 -0.1666
vn -0.1219 -0.9850 -0.1219
vn -0.2676 -0.9256 -0.2676
vn -0.3713 -0.8510 -0.3713
vn -0.0902 -0.9718 -0.2180
vn -0.0660 -0.9850 -0.1596
vn -0.1447 -0.9253 -0.3505
vn -0.2015 -0.8506 -0.4856
vn 0.0000 -0.9716 -0.2366
vn 0.0000 -0.9849 -0.1731
vn 0.0000 -0.9251 -0.3797
vn 0.0000 -0.8501 -0.5267
vn 0.0902 -0.9718 -0.2180
vn 0.0660 -0.9850 -0.1596
vn 0.1447 -0.9253 -0.3505
vn 0.2015 -0.8506 -0.4856
vn 0.1666 -0.9718 -0.1666
vn 0.1219 -0.9850 -0.1219
vn 0.2676 -0.9256 -0.2676
vn 0.3713 -0.8510 -0.3713
vn 0.2180 -0.9718 -0.0902
vn 0.1596 -0.9850 -0.0660
vn 0.3505 -0.9253 -0.1447
vn 0.4856 -0.8506 -0.2015
vn 0.2366 -0.9716 0.0000
vn 0.1731 -0.9849 0.0000
vn 0.3797 -0.9251 0.0000
vn 0.5267 -0.8501 0.0000
vn 0.2180 -0.9718 0.0902
vn 0.1596 -0.9850 0.0660
vn 0.3505 -0.9253 0.1447
vn 0.4856 -0.8506 0.2015
vn 0.1666 -0.9718 0.1666
vn 0.1219 -0.9850 0.1219
vn 0.2676 -0.9256 0.2676
vn 0.3713 -0.8510 0.3713
vn 0.0902 -0.9718 0.2180
vn 0.0660 -0.9850 0.1596
vn 0.1447 -0.9253 0.3505
vn 0.2015 -0.8506 0.4856
vn 0.0000 -0.9716 0.2366
vn 0.0000 -0.9849 0.1731
vn 0.0000 -0.9251 0.3797
vn 0.0000 -0.8501 0.5267
vn -0.0902 -0.9718 0.2180
vn -0.0660 -0.9850 0.1596
vn -0.1447 -0.9253 0.3505
vn -0.2015 -0.8506 0.4856
vn -0.1666 -0.9718 0.1666
vn -0.1219 -0.9850 0.1219
vn -0.2676 -0.9256 0.2676
vn -0.3713 -0.8510 0.3713
vn -0.2180 -0.9718 0.0902
vn -0.1596 -0.9850 0.0660
vn -0.3505 -0.9253 0.1447
vn -0.4856 -0.8506 0.2015
s 1
f 1//1 2//2 3//3
f 3//3 4//4 1//1
f 5//5 1//1 4//4
f 4//4 6//6 5//5
f 7//7 5//5 6//6
f 6//6 8//8 7//7
f 9//9 7//7 8//8
f 8//8 10//10 9//9
f 11//11 12//12 2//2
f 2//2 1//1 11//11
f 13//13 11//11 1//1
f 1//1 5//5 13//13
f 14//14 13//13 5//5
f 5//5 7//7 14//14
f 15//15 14//14 7//7
f 7//7 9//9 15//15
f 16//16 17//17 12//12
f 12//12 11//11 16//16
f 18//18 16//16 11//11
f 11//11 13//13 18//18
f 19//19 18//18 13//13
f 13//13 14//14 19//19
f 20//20 19//19 14//14
f 14//14 15//15 20//20
f 21//21 22//22 17//17
f 17//17 16//16 21//21
f 23//23 21//21 16//16
f 16//16 18//18 23//23
f 24//24 23//23 18//18
f 18//18 19//19 24//24
f 25//25 24//24 19//19
f 19//19 20//20 25//25
f 26//26 27//27 22//22
f 22//22 21//21 26//26
f 28//28 26//26 21//21
f 21//21 23//23 28//28
f 29//29 28//28 23//23
f 23//23 24//24 29//29
f 30//30 29//29 24//24
f 24//24 25//25 30//30
f 31//31 32//32 27//27
f 27//27 26//26 31//31
f 33//33 31//31 26//26
f 26//26 28//28 33//33
f 34//34 33//33 28//28
f 28//28 29//29 34//34
f 35//35 34//34 29//29
f 29//29 30//30 35//35
f 36//36 37//37 32//32
f 32//32 31//31 36//36
f 38//38 36//36 31//31
f 31//31 33//33 38//38
f 39//39 38//38 33//33
f 33//33 34//34 39//39
f 40//40 39//39 34//34
f 34//34 35//35 40//40
f 41//41 42//42 37//37
f 37//37 36//36 41//41
f 43//43 41//41 36//36
f 36//36 38//38 43//43
f 44//44 43//43 38//38
f 38//38 39//39 44//44
f 45//45 44//44 39//39
f 39//39 40//40 45//45
f 46//46 47//47 42//42
f 42//42 41//41 46//46
f 48//48 46//46 41//41
f 41//41 43//43 48//48
f 49//49 48//48 43//43
f 43//43 44//44 49//49
f 50//50 49//49 44//44
f 44//44 45//45 50//50
f 51//51 52//52 47//47
f 47//47 46//46 51//51
f 53//53 51//51 46//46
f 46//46 48//48 53//53
f 54//54 53//53 48//48
f 48//48 49//49 54//54
f 55//55 54//54 49//49
f 49//49 50//50 55//55
f 56//56 57//57 52//52
f 52//52 51//51 56//56
f 58//58 56//56 51//51
f 51//51 53//53 58//58
f 59//59 58//58 53//53
f 53//53 54//54 59//59
f 60//60 59//59 54//54
f 54//54 55//55 60//60
f 61//61 62//62 57//57
f 57//57 56//56 61//61
f 63//63 61//61 56//56
f 56//56 58//58 63//63
f 64//64 63//63 58//58
f 58//58 59//59 64//64
f 65//65 64//64 59//59
f 59//59 60//60 65//65
f 66//66 67//67 62//62
f 62//62 61//61 66//66
f 68//68 66//66 61//61
f 61//61 63//63 68//68
f 69//69 68//68 63//63
f 63//63 64//64 69//69
f 70//70 69//69 64//64
f 64//64 65//65 70//70
f 71//71 72//72 67//67
f 67//67 66//66 71//71
f 73//73 71//71 66//66
f 66//66 68//68 73//73
f 74//74 73//73 68//68
f 68//68 69//69 74//74
f 75//75 74//74 69//69
f 69//69 70//70 75//75
f 76//76 77//77 72//72
f 72//72 71//71 76//76
f 78//78 76//76 71//71
f 71//71 73//73 78//78
f 79//79 78//78 73//73
f 73//73 74//74 79//79
f 80//80 79//79 74//74
f 74//74 75//75 80//80
f 4//4 3//3 77//77
f 77//77 76//76 4//4
f 6//6 4//4 76//76
f 76//76 78//78 6//6
f 8//8 6//6 78//78
f 78//78 79//79 8//8
f 10//10 8//8 79//79
f 79//79 80//80 10//10
f 81//81 9//9 10//10
f 10//10 82//82 81//81
f 83//83 81//81 82//82
f 82//82 84//84 83//83
f 85//85 83//83 84//84
f 84//84 86//86 85//85
f 87//87 85//85 86//86
f 86//86 88//88 87//87
f 89//89 15//15 9//9
f 9//9 81//81 89//89
f 90//90 89//89 81//81
f 81//81 83//83 90//90
f 91//91 90//90 83//83
f 83//83 85//85 91//91
f 92//92 91//91 85//85
f 85//85 87//87 92//92
f 93//93 20//20 15//15
f 15//15 89//89 93//93
f 94//94 93//93 89//89
f 89//89 90//90 94//94
f 95//95 94//94 90//90
f 90//90 91//91 95//95
f 96//96 95//95 91//91
f 91//91 92//92 96//96
f 97//97 25//25 20//20
f 20//20 93//93 97//97
f 98//98 97//97 93//93
f 93//93 94//94 98//98
f 99//99 98//98 94//94
f 94//94 95//95 99//99
f 100//100 99//99 95//95
f 95//95 96//96 100//100
f 101//101 30//30 25//25
f 25//25 97//97 101//101
f 102//102 101//101 97//97
f 97//97 98//98 102//102
f 103//103 102//102 98//98
f 98//98 99//99 103//103
f 104//104 103//103 99//99
f 99//99 100//100 104//104
f 105//105 35//35 30//30
f 30//30 101//101 105//105
f 106//106 105//105 101//101
f 101//101 102//102 106//106
f 107//107 106//106 102//102
f 102//102 103//103 107//107
f 108//108 107//107 103//103
f 103//103 104//104 108//108
f 109//109 40//40 35//35
f 35//35 105//105 109//109
f 110//110 109//109 105//105
f 105//105 106//106 110//110
f 111//111 110//110 106//106
f 106//106 107//107 111//111
f 112//112 111//111 107//107
f 107//107 108//108 112//112
f 113//113 45//45 40//40
f 40//40 109//109 113//113
f 114//114 113//113 109//109
f 109//109 110//110 114//114
f 115//115 114//114 110//110
f 110//110 111//111 115//115
f 116//116 115//115 111//111
f 111//111 112//112 116//116
f 117//117 50//50 45//45
f 45//45 113//113 117//117
f 118//118 117//117 113//113
f 113//113 114//114 118//118
f 119//119 118//118 114//114
f 114//114 115//115 119//119
f 120//120 119//119 115//115
f 115//115 116//116 120//120
f 121//121 55//55 50//50
f 50//50 117//117 121//121
f 122//122 121//121 117//117
f 117//117 118//118 122//122
f 123//123 122//122 118//118
f 118//118 119//119 123//123
f 124//124 123//123 119//119
f 119//119 120//120 124//124
f 125//125 60//60 55//55
f 55//55 121//121 125//125
f 126//126 125//125 121//121
f 121//121 122//122 126//126
f 127//127 126//126 122//122
f 122//122 123//123 127//127
f 128//128 127//127 123//123
f 123//123 124//124 128//128
f 129//129 65//65 60//60
f 60//60 125//125 129//129
f 130//130 129//129 125//125
f 125//125 126//126 130//130
f 131//131 130//130 126//126
f 126//126 127//127 131//131
f 132//132 131//131 127//127
f 127//127 128//128 132//132
f 133//133 70//70 65//65
f 65//65 129//129 133//133
f 134//134 133//133 129//129
f 129//129 130//130 134//134
f 135//135 134//134 130//130
f 130//130 131//131 135//135
f 136//136 135//135 131//131
f 131//131 132//132 136//136
f 137//137 75//75 70//70
f 70//70 133//133 137//137
f 138//138 137//137 133//133
f 133//133 134//134 138//138
f 139//139 138//138 134//134
f 134//134 135//135 139//139
f 140//140 139//139 135//135
f 135//135 136//136 140//140
f 141//141 80//80 75//75
f 75//75 137//137 141//141
f 142//142 141//141 137//137
f 137//137 138//138 142//142
f 143//143 142//142 138//138
f 138//138 139//139 143//143
f 144//144 143//143 139//139
f 139//139 140//140 144//144
f 82//82 10//10 80//80
f 80//80 141//141 82//82
f 84//84 82//82 141//141
f 141//141 142//142 84//84
f 86//86 84//84 142//142
f 142//142 143//143 86//86
f 88//88 86//86 143//143
f 143//143 144//144 88//88
f 145//145 87//87 88//88
f 88//88 146//146 145//145
f 147//147 145//145 146//146
f 146//146 148//148 147//147
f 149//149 147//147 148//148
f 148//148 150//150 149//149
f 151//151 149//149 150//150
f 150//150 152//152 151//151
f 153//153 92//92 87//87
f 87//87 145//145 153//153
f 154//154 153//153 145//145
f 145//145 147//147 154//154
f 155//155 154//154 147//147
f 147//147 149//149 155//155
f 156//156 155//155 149//149
f 149//149 151//151 156//156
f 157//157 96//96 92//92
f 92//92 153//153 157//157
f 158//158 157//157 153//153
f 153//153 154//154 158//158
f 159//159 158//158 154//154
f 154//154 155//155 159//159
f 160//160 159//159 155//155
f 155//155 156//156 160//160
f 161//161 100//100 96//96
f 96//96 157//157 161//161
f 162//162 161//161 157//157
f 157//157 158//158 162//162
f 163//163 162//162 158//158
f 158//158 159//159 163//163
f 164//164 163//163 159//159
f 159//159 160//160 164//164
f 165//165 104//104 100//100
f 100//100 161//161 165//165
f 166//166 165//165 161//161
f 161//161 162//162 166//166
f 167//167 166//166 162//162
f 162//162 163//163 167//167
f 168//168 167//167 163//163
f 163//163 164//164 168//168
f 169//169 108//108 104//104
f 104//104 165//165 169//169
f 170//170 169//169 165//165
f 165//165 166//166 170//170
f 171//171 170//170 166//166
f 166//166 167//167 171//171
f 172//172 171//171 167//167
f 167//167 168//168 172//172
f 173//173 112//112 108//108
f 108//108 169//169 173//173
f 174//174 173//173 169//169
f 169//169 170//170 174//174
f 175//175 174//174 170//170
f 170//170 171//171 175//175
f 176//176 175//175 171//171
f 171//171 172//172 176//176
f 177//177 116//116 112//112
f 112//112 173//173 177//177
f 178//178 177//177 173//173
f 173//173 174//174 178//178
f 179//179 178//178 174//174
f 174//174 175//175 179//179
f 180//180 179//179 175//175
f 175//175 176//176 180//180
f 181//181 120//120 116//116
f 116//116 177//177 181//181
f 182//182 181//181 177//177
f 177//177 178//178 182//182
f 183//183 182//182 178//178
f 178//178 179//179 183//183
f 184//184 183//183 179//179
f 179//179 180//180 184//184
f 185//185 124//124 120//120
f 120//120 181//181 185//185
f 186//186 185//185 181//181
f 181//181 182//182 186//186
f 187//187 186//186 182//182
f 182//182 183//183 187//187
f 188//188 187//187 183//183
f 183//183 184//184 188//188
f 189//189 128//128 124//124
f 124//124 185//185 189//189
f 190//190 189//189 185//185
f 185//185 186//186 190//190
f 191//191 190//190 186//186
f 186//186 187//187 191//191
f 192//192 191//191 187//187
f 187//187 188//188 192//192
f 193//193 132//132 128//128
f 128//128 189//189 193//193
f 194//194 193//193 189//189
f 189//189 190//190 194//194
f 195//195 194//194 190//190
f 190//190 191//191 195//195
f 196//196 195//195 191//191
f 191//191 192//192 196//196
f 197//197 136//136 132//132
f 132//132 193//193 197//197
f 198//198 197//197 193//193
f 193//193 194//194 198//198
f 199//199 198//198 194//194
f 194//194 195//195 199//199
f 200//200 199//199 195//195
f 195//195 196//196 200//200
f 201//201 140//140 136//136
f 136//136 197//197 201//201
f 202//202 201//201 197//197
f 197//197 198//198 202//202
f 203//203 202//202 198//198
f 198//198 199//199 203//203
f 204//204 203//203 199//199
f 199//199 200//200 204//204
f 205//205 144//144 140//140
f 140//140 201//201 205//205
f 206//206 205//205 201//201
f 201//201 202//202 206//206
f 207//207 206//206 202//202
f 202//202 203//203 207//207
f 208//208 207//207 203//203
f 203//203 204//204 208//208
f 146//146 88//88 144//144
f 144//144 205//205 146//146
f 148//148 146//146 205//205
f 205//205 206//206 148//148
f 150//150 148//148 206//206
f 206//206 207//207 150//150
f 152//152 150//150 207//207
f 207//207 208//208 152//152
f 209//209 151//151 152//152
f 152//152 210//210 209//209
f 211//211 209//209 210//210
f 210//210 212//212 211//211
f 213//213 211//211 212//212
f 212//212 214//214 213//213
f 215//215 213//213 214//214
f 216//216 156//156 151//151
f 151//151 209//209 216//216
f 217//217 216//216 209//209
f 209//209 211//211 217//217
f 218//218 217//217 211//211
f 211//211 213//213 218//218
f 215//215 218//218 213//213
f 219//219 160//160 156//156
f 156//156 216//216 219//219
f 220//220 219//219 216//216
f 216//216 217//217 220//220
f 221//221 220//220 217//217
f 217//217 218//218 221//221
f 215//215 221//221 218//218
f 222//222 164//164 160//160
f 160//160 219//219 222//222
f 223//223 222//222 219//219
f 219//219 220//220 223//223
f 224//224 223//223 220//220
f 220//220 221//221 224//224
f 215//215 224//224 221//221
f 225//225 168//168 164//164
f 164//164 222//222 225//225
f 226//226 225//225 222//222
f 222//222 223//223 226//226
f 227//227 226//226 223//223
f 223//223 224//224 227//227
f 215//215 227//227 224//224
f 228//228 172//172 168//168
f 168//168 225//225 228//228
f 229//229 228//228 225//225
f 225//225 226//226 229//229
f 230//230 229//229 226//226
f 226//226 227//227 230//230
f 215//215 230//230 227//227
f 231//231 176//176 172//172
f 172//172 228//228 231//231
f 232//232 231//231 228//228
f 228//228 229//229 232//232
f 233//233 232//232 229//229
f 229//229 230//230 233//233
f 215//215 233//233 230//230
f 234//234 180//180 176//176
f 176//176 231//231 234//234
f 235//235 234//234 231//231
f 231//231 232//232 235//235
f 236//236 235//235 232//232
f 232//232 233//233 236//236
f 215//215 236//236 233//233
f 237//237 184//184 180//180
f 180//180 234//234 237//237
f 238//238 237//237 234//234
f 234//234 235//235 238//238
f 239//239 238//238 235//235
f 235//235 236//236 239//239
f 215//215 239//239 236//236
f 240//240 188//188 184//184
f 184//184 237//237 240//240
f 241//241 240//240 237//237
f 237//237 238//238 241//241
f 242//242 241//241 238//238
f 238//238 239//239 242//242
f 215//215 242//242 239//239
f 243//243 192//192 188//188
f 188//188 240//240 243//243
f 244//244 243//243 240//240
f 240//240 241//241 244//244
f 245//245 244//244 241//241
f 241//241 242//242 245//245
f 215//215 245//245 242//242
f 246//246 196//196 192//192
f 192//192 243//243 246//246
f 247//247 246//246 243//243
f 243//243 244//244 247//247
f 248//248 247//247 244//244
f 244//244 245//245 248//248
f 215//215 248//248 245//245
f 249//249 200//200 196//196
f 196//196 246//246 249//249
f 250//250 249//249 246//246
f 246//246 247//247 250//250
f 251//251 250//250 247//247
f 247//247 248//248 251//251
f 215//215 251//251 248//248
f 252//252 204//204 200//200
f 200//200 249//249 252//252
f 253//253 252//252 249//249
f 249//249 250//250 253//253
f 254//254 253//253 250//250
f 250//250 251//251 254//254
f 215//215 254//254 251//251
f 255//255 208//208 204//204
f 204//204 252//252 255//255
f 256//256 255//255 252//252
f 252//252 253//253 256//256
f 257//257 256//256 253//253
f 253//253 254//254 257//257
f 215//215 257//257 254//254
f 210//210 152//152 208//208
f 208//208 255//255 210//210
f 212//212 210//210 255//255
f 255//255 256//256 212//212
f 214//214 212//212 256//256
f 256//256 257//257 214//214
f 215//215 214//214 257//257
f 258//258 259//259 260//260
f 260//260 261//261 258//258
f 262//262 258//258 261//261
f 261//261 263//263 262//262
f 264//264 262//262 263//263
f 263//263 265//265 264//264
f 266//266 264//264 265//265
f 265//265 267//267 266//266
f 268//268 269//269 259//259
f 259//259 258//258 268//268
f 270//270 268//268 258//258
f 258//258 262//262 270//270
f 271//271 270//270 262//262
f 262//262 264//264 271//271
f 272//272 271//271 264//264
f 264//264 266//266 272//272
f 273//273 274//274 269//269
f 269//269 268//268 273//273
f 275//275 273//273 268//268
f 268//268 270//270 275//275
f 276//276 275//275 270//270
f 270//270 271//271 276//276
f 277//277 276//276 271//271
f 271//271 272//272 277//277
f 278//278 279//279 274//274
f 274//274 273//273 278//278
f 280//280 278//278 273//273
f 273//273 275//275 280//280
f 281//281 280//280 275//275
f 275//275 276//276 281//281
f 282//282 281//281 276//276
f 276//276 277//277 282//282
f 283//283 284//284 279//279
f 279//279 278//278 283//283
f 285//285 283//283 278//278
f 278//278 280//280 285//285
f 286//286 285//285 280//280
f 280//280 281//281 286//286
f 287//287 286//286 281//281
f 281//281 282//282 287//287
f 288//288 289//289 284//284
f 284//284 283//283 288//288
f 290//290 288//288 283//283
f 283//283 285//285 290//290
f 291//291 290//290 285//285
f 285//285 286//286 291//291
f 292//292 291//291 286//286
f 286//286 287//287 292//292
f 293//293 294//294 289//289
f 289//289 288//288 293//293
f 295//295 293//293 288//288
f 288//288 290//290 295//295
f 296//296 295//295 290//290
f 290//290 291//291 296//296
f 297//297 296//296 291//291
f 291//291 292//292 297//297
f 261//261 260//260 294//294
f 294//294 293//293 261//261
f 263//263 261//261 293//293
f 293//293 295//295 263//263
f 265//265 263//263 295//295
f 295//295 296//296 265//265
f 267//267 265//265 296//296
f 296//296 297//297 267//267
f 298//298 266//266 267//267
f 267//267 299//299 298//298
f 300//300 298//298 299//299
f 299//299 301//301 300//300
f 302//302 300//300 301//301
f 301//301 303//303 302//302
f 304//304 302//302 303//303
f 303//303 305//305 304//304
f 306//306 272//272 266//266
f 266//266 298//298 306//306
f 307//307 306//306 298//298
f 298//298 300//300 307//307
f 308//308 307//307 300//300
f 300//300 302//302 308//308
f 309//309 308//308 302//302
f 302//302 304//304 309//309
f 310//310 277//277 272//272
f 272//272 306//306 310//310
f 311//311 310//310 306//306
f 306//306 307//307 311//311
f 312//312 311//311 307//307
f 307//307 308//308 312//312
f 313//313 312//312 308//308
f 308//308 309//309 313//313
f 314//314 282//282 277//277
f 277//277 310//310 314//314
f 315//315 314//314 310//310
f 310//310 311//311 315//315
f 316//316 315//315 311//311
f 311//311 312//312 316//316
f 317//317 316//316 312//312
f 312//312 313//313 317//317
f 318//318 287//287 282//282
f 282//282 314//314 318//318
f 319//319 318//318 314//314
f 314//314 315//315 319//319
f 320//320 319//319 315//315
f 315//315 316//316 320//320
f 321//321 320//320 316//316
f 316//316 317//317 321//321
f 322//322 292//292 287//287
f 287//287 318//318 322//322
f 323//323 322//322 318//318
f 318//318 319//319 323//323
f 324//324 323//323 319//319
f 319//319 320//320 324//324
f 325//325 324//324 320//320
f 320//320 321//321 325//325
f 326//326 297//297 292//292
f 292//292 322//322 326//326
f 327//327 326//326 322//322
f 322//322 323//323 327//327
f 328//328 327//327 323//323
f 323//323 324//324 328//328
f 329//329 328//328 324//324
f 324//324 325//325 329//329
f 299//299 267//267 297//297
f 297//297 326//326 299//299
f 301//301 299//299 326//326
f 326//326 327//327 301//301
f 303//303 301//301 327//327
f 327//327 328//328 303//303
f 305//305 303//303 328//328
f 328//328 329//329 305//305
f 330//330 331//331 332//332
f 332//332 333//333 330//330
f 334//334 330//330 333//333
f 333//333 335//335 334//334
f 336//336 334//334 335//335
f 335//335 337//337 336//336
f 338//338 336//336 337//337
f 337//337 339//339 338//338
f 340//340 341//341 331//331
f 331//331 330//330 340//340
f 342//342 340//340 330//330
f 330//330 334//334 342//342
f 343//343 342//342 334//334
f 334//334 336//336 343//343
f 344//344 343//343 336//336
f 336//336 338//338 344//344
f 345//345 346//346 341//341
f 341//341 340//340 345//345
f 347//347 345//345 340//340
f 340//340 342//342 347//347
f 348//348 347//347 342//342
f 342//342 343//343 348//348
f 349//349 348//348 343//343
f 343//343 344//344 349//349
f 350//350 351//351 346//346
f 346//346 345//345 350//350
f 352//352 350//350 345//345
f 345//345 347//347 352//352
f 353//353 352//352 347//347
f 347//347 348//348 353//353
f 354//354 353//353 348//348
f 348//348 349//349 354//354
f 355//355 356//356 351//351
f 351//351 350//350 355//355
f 357//357 355//355 350//350
f 350//350 352//352 357//357
f 358//358 357//357 352//352
f 352//352 353//353 358//358
f 359//359 358//358 353//353
f 353//353 354//354 359//359
f 360//360 361//361 356//356
f 356//356 355//355 360//360
f 362//362 360//360 355//355
f 355//355 357//357 362//362
f 363//363 362//362 357//357
f 357//357 358//358 363//363
f 364//364 363//363 358//358
f 358//358 359//359 364//364
f 365//365 366//366 361//361
f 361//361 360//360 365//365
f 367//367 365//365 360//360
f 360//360 362//362 367//367
f 368//368 367//367 362//362
f 362//362 363//363 368//368
f 369//369 368//368 363//363
f 363//363 364//364 369//369
f 333//333 332//332 366//366
f 366//366 365//365 333//333
f 335//335 333//333 365//365
f 365//365 367//367 335//335
f 337//337 335//335 367//367
f 367//367 368//368 337//337
f 339//339 337//337 368//368
f 368//368 369//369 339//339
f 370//370 338//338 339//339
f 339//339 371//371 370//370
f 372//372 370//370 371//371
f 371//371 373//373 372//372
f 374//374 372//372 373//373
f 373//373 375//375 374//374
f 376//376 374//374 375//375
f 375//375 377//377 376//376
f 378//378 344//344 338//338
f 338//338 370//370 378//378
f 379//379 378//378 370//370
f 370//370 372//372 379//379
f 380//380 379//379 372//372
f 372//372 374//374 380//380
f 381//381 380//380 374//374
f 374//374 376//376 381//381
f 382//382 349//349 344//344
f 344//344 378//378 382//382
f 383//383 382//382 378//378
f 378//378 379//379 383//383
f 384//384 383//383 379//379
f 379//379 380//380 384//384
f 385//385 384//384 380//380
f 380//380 381//381 385//385
f 386//386 354//354 349//349
f 349//349 382//382 386//386
f 387//387 386//386 382//382
f 382//382 383//383 387//387
f 388//388 387//387 383//383
f 383//383 384//384 388//388
f 389//389 388//388 384//384
f 384//384 385//385 389//389
f 390//390 359//359 354//354
f 354//354 386//386 390//390
f 391//391 390//390 386//386
f 386//386 387//387 391//391
f 392//392 391//391 387//387
f 387//387 388//388 392//392
f 393//393 392//392 388//388
f 388//388 389//389 393//393
f 394//394 364//364 359//359
f 359//359 390//390 394//394
f 395//395 394//394 390//390
f 390//390 391//391 395//395
f 396//396 395//395 391//391
f 391//391 392//392 396//396
f 397//397 396//396 392//392
f 392//392 393//393 397//397
f 398//398 369//369 364//364
f 364//364 394//394 398//398
f 399//399 398//398 394//394
f 394//394 395//395 399//399
f 400//400 399//399 395//395
f 395//395 396//396 400//400
f 401//401 400//400 396//396
f 396//396 397//397 401//401
f 371//371 339//339 369//369
f 369//369 398//398 371//371
f 373//373 371//371 398//398
f 398//398 399//399 373//373
f 375//375 373//373 399//399
f 399//399 400//400 375//375
f 377//377 375//375 400//400
f 400//400 401//401 377//377
f 402//402 403//403 404//404
f 405//405 404//404 403//403
f 403//403 406//406 405//405
f 407//407 405//405 406//406
f 406//406 408//408 407//407
f 409//409 407//407 408//408
f 408//408 410//410 409//409
f 402//402 404//404 411//411
f 412//412 411//411 404//404
f 404//404 405//405 412//412
f 413//413 412//412 405//405
f 405//405 407//407 413//413
f 414//414 413//413 407//407
f 407//407 409//409 414//414
f 402//402 411//411 415//415
f 416//416 415//415 411//411
f 411//411 412//412 416//416
f 417//417 416//416 412//412
f 412//412 413//413 417//417
f 418//418 417//417 413//413
f 413//413 414//414 418//418
f 402//402 415//415 419//419
f 420//420 419//419 415//415
f 415//415 416//416 420//420
f 421//421 420//420 416//416
f 416//416 417//417 421//421
f 422//422 421//421 417//417
f 417//417 418//418 422//422
f 402//402 419//419 423//423
f 424//424 423//423 419//419
f 419//419 420//420 424//424
f 425//425 424//424 420//420
f 420//420 421//421 425//425
f 426//426 425//425 421//421
f 421//421 422//422 426//426
f 402//402 423//423 427//427
f 428//428 427//427 423//423
f 423//423 424//424 428//428
f 429//429 428//428 424//424
f 424//424 425//425 429//429
f 430//430 429//429 425//425
f 425//425 426//426 430//430
f 402//402 427//427 431//431
f 432//432 431//431 427//427
f 427//427 428//428 432//432
f 433//433 432//432 428//428
f 428//428 429//429 433//433
f 434//434 433//433 429//429
f 429//429 430//430 434//434
f 402//402 431//431 435//435
f 436//436 435//435 431//431
f 431//431 432//432 436//436
f 437//437 436//436 432//432
f 432//432 433//433 437//437
f 438//438 437//437 433//433
f 433//433 434//434 438//438
f 402//402 435//435 439//439
f 440//440 439//439 435//435
f 435//435 436//436 440//440
f 441//441 440//440 436//436
f 436//436 437//437 441//441
f 442//442 441//441 437//437
f 437//437 438//438 442//442
f 402//402 439//439 443//443
f 444//444 443//443 439//439
f 439//439 440//440 444//444
f 445//445 444//444 440//440
f 440//440 441//441 445//445
f 446//446 445//445 441//441
f 441//441 442//442 446//446
f 402//402 443//443 447//447
f 448//448 447//447 443//443
f 443//443 444//444 448//448
f 449//449 448//448 444//444
f 444//444 445//445 449//449
f 450//450 449//449 445//445
f 445//445 446//446 450//450
f 402//402 447//447 451//451
f 452//452 451//451 447//447
f 447//447 448//448 452//452
f 453//453 452//452 448//448
f 448//448 449//449 453//453
f 454//454 453//453 449//449
f 449//449 450//450 454//454
f 402//402 451//451 455//455
f 456//456 455//455 451//451
f 451//451 452//452 456//456
f 457//457 456//456 452//452
f 452//452 453//453 457//457
f 458//458 457//457 453//453
f 453//453 454//454 458//458
f 402//402 455//455 459//459
f 460//460 459//459 455//455
f 455//455 456//456 460//460
f 461//461 460//460 456//456
f 456//456 457//457 461//461
f 462//462 461//461 457//457
f 457//457 458//458 462//462
f 402//402 459//459 463//463
f 464//464 463//463 459//459
f 459//459 460//460 464//464
f 465//465 464//464 460//460
f 460//460 461//461 465//465
f 466//466 465//465 461//461
f 461//461 462//462 466//466
f 402//402 463//463 403//403
f 406//406 403//403 463//463
f 463//463 464//464 406//406
f 408//408 406//406 464//464
f 464//464 465//465 408//408
f 410//410 408//408 465//465
f 465//465 466//466 410//410
f 467//467 409//409 410//410
f 410//410 468//468 467//467
f 469//469 467//467 468//468
f 468//468 470//470 469//469
f 471//471 469//469 470//470
f 470//470 472//472 471//471
f 473//473 471//471 472//472
f 472//472 474//474 473//473
f 475//475 414//414 409//409
f 409//409 467//467 475//475
f 476//476 475//475 467//467
f 467//467 469//469 476//476
f 477//477 476//476 469//469
f 469//469 471//471 477//477
f 478//478 477//477 471//471
f 471//471 473//473 478//478
f 479//479 418//418 414//414
f 414//414 475//475 479//479
f 480//480 479//479 475//475
f 475//475 476//476 480//480
f 481//481 480//480 476//476
f 476//476 477//477 481//481
f 482//482 481//481 477//477
f 477//477 478//478 482//482
f 483//483 422//422 418//418
f 418//418 479//479 483//483
f 484//484 483//483 479//479
f 479//479 480//480 484//484
f 485//485 484//484 480//480
f 480//480 481//481 485//485
f 486//486 485//485 481//481
f 481//481 482//482 486//486
f 487//487 426//426 422//422
f 422//422 483//483 487//487
f 488//488 487//487 483//483
f 483//483 484//484 488//488
f 489//489 488//488 484//484
f 484//484 485//485 489//489
f 490//490 489//489 485//485
f 485//485 486//486 490//490
f 491//491 430//430 426//426
f 426//426 487//487 491//491
f 492//492 491//491 487//487
f 487//487 488//488 492//492
f 493//493 492//492 488//488
f 488//488 489//489 493//493
f 494//494 493//493 489//489
f 489//489 490//490 494//494
f 495//495 434//434 430//430
f 430//430 491//491 495//495
f 496//496 495//495 491//491
f 491//491 492//492 496//496
f 497//497 496//496 492//492
f 492//492 493//493 497//497
f 498//498 497//497 493//493
f 493//493 494//494 498//498
f 499//499 438//438 434//434
f 434//434 495//495 499//499
f 500//500 499//499 495//495
f 495//495 496//496 500//500
f 501//501 500//500 496//496
f 496//496 497//497 501//501
f 502//502 501//501 497//497
f 497//497 498//498 502//502
f 503//503 442//442 438//438
f 438//438 499//499 503//503
f 504//504 503//503 499//499
f 499//499 500//500 504//504
f 505//505 504//504 500//500
f 500//500 501//501 505//505
f 506//506 505//505 501//501
f 501//501 502//502 506//506
f 507//507 446//446 442//442
f 442//442 503//503 507//507
f 508//508 507//507 503//503
f 503//503 504//504 508//508
f 509//509 508//508 504//504
f 504//504 505//505 509//509
f 510//510 509//509 505//505
f 505//505 506//506 510//510
f 511//511 450//450 446//446
f 446//446 507//507 511//511
f 512//512 511//511 507//507
f 507//507 508//508 512//512
f 513//513 512//512 508//508
f 508//508 509//509 513//513
f 514//514 513//513 509//509
f 509//509 510//510 514//514
f 515//515 454//454 450//450
f 450//450 511//511 515//515
f 516//516 515//515 511//511
f 511//511 512//512 516//516
f 517//517 516//516 512//512
f 512//512 513//513 517//517
f 518//518 517//517 513//513
f 513//513 514//514 518//518
f 519//519 458//458 454//454
f 454//454 515//515 519//519
f 520//520 519//519 515//515
f 515//515 516//516 520//520
f 521//521 520//520 516//516
f 516//516 517//517 521//521
f 522//522 521//521 517//517
f 517//517 518//518 522//522
f 523//523 462//462 458//458
f 458//458 519//519 523//523
f 524//524 523//523 519//519
f 519//519 520//520 524//524
f 525//525 524//524 520//520
f 520//520 521//521 525//525
f 526//526 525//525 521//521
f 521//521 522//522 526//526
f 527//527 466//466 462//462
f 462//462 523//523 527//527
f 528//528 527//527 523//523
f 523//523 524//524 528//528
f 529//529 528//528 524//524
f 524//524 525//525 529//529
f 530//530 529//529 525//525
f 525//525 526//526 530//530
f 468//468 410//410 466//466
f 466//466 527//527 468//468
f 470//470 468//468 527//527
f 527//527 528//528 470//470
f 472//472 470//470 528//528
f 528//528 529//529 472//472
f 474//474 472//472 529//529
f 529//529 530//530 474//474
